<svg width="1843" height="715" viewBox="0 0 1843 715" fill="none" xmlns="http://www.w3.org/2000/svg">
<ellipse cx="128" cy="173.472" rx="5" ry="5.20154" fill="white" fill-opacity="0.15"/>
<ellipse cx="5" cy="206.762" rx="5" ry="5.20154" fill="white" fill-opacity="0.3"/>
<ellipse cx="29" cy="231.729" rx="5" ry="5.20154" fill="white" fill-opacity="0.08"/>
<ellipse cx="118" cy="358.647" rx="5" ry="5.20154" fill="white" fill-opacity="0.3"/>
<ellipse cx="15" cy="449.154" rx="5" ry="5.20154" fill="white" fill-opacity="0.1"/>
<ellipse cx="67" cy="672.82" rx="5" ry="5.20154" fill="white" fill-opacity="0.3"/>
<ellipse cx="329" cy="532.378" rx="5" ry="5.20154" fill="white" fill-opacity="0.3"/>
<ellipse cx="403" cy="662.417" rx="5" ry="5.20154" fill="white" fill-opacity="0.08"/>
<ellipse cx="888" cy="608.321" rx="5" ry="5.20154" fill="white" fill-opacity="0.08"/>
<ellipse cx="474" cy="454.355" rx="5" ry="5.20154" fill="white" fill-opacity="0.1"/>
<ellipse cx="578" cy="563.587" rx="5" ry="5.20154" fill="white" fill-opacity="0.3"/>
<ellipse cx="222" cy="120.416" rx="5" ry="5.20154" fill="white" fill-opacity="0.3"/>
<ellipse cx="780" cy="159.948" rx="5" ry="5.20154" fill="white" fill-opacity="0.3"/>
<ellipse cx="846" cy="330.559" rx="5" ry="5.20154" fill="white" fill-opacity="0.1"/>
<ellipse cx="903" cy="67.3608" rx="5" ry="5.20154" fill="white" fill-opacity="0.05"/>
<ellipse cx="217" cy="236.931" rx="5" ry="5.20154" fill="white" fill-opacity="0.3"/>
<ellipse cx="1722" cy="219.202" rx="5" ry="5.20154" fill="white" fill-opacity="0.3"/>
<ellipse cx="1803" cy="379.202" rx="5" ry="5.20154" fill="white" fill-opacity="0.8"/>
<ellipse cx="1694" cy="486.202" rx="5" ry="5.20154" fill="white" fill-opacity="0.1"/>
<ellipse cx="1369" cy="680.202" rx="5" ry="5.20154" fill="white" fill-opacity="0.3"/>
<ellipse cx="1609" cy="678.202" rx="5" ry="5.20154" fill="white" fill-opacity="0.3"/>
<ellipse cx="1823" cy="678.202" rx="5" ry="5.20154" fill="white" fill-opacity="0.3"/>
<ellipse cx="1813" cy="5.20154" rx="5" ry="5.20154" fill="white" fill-opacity="0.3"/>
<ellipse cx="1572" cy="414.823" rx="5" ry="5.20154" fill="white" fill-opacity="0.3"/>
<ellipse cx="1416" cy="77.7639" rx="5" ry="5.20154" fill="white" fill-opacity="0.3"/>
<ellipse cx="334" cy="178.674" rx="5" ry="5.20154" fill="white" fill-opacity="0.08"/>
<ellipse cx="528" cy="72.5623" rx="5" ry="5.20154" fill="white" fill-opacity="0.1"/>
<path d="M907.694 317.555L917.5 307.353L927.306 317.555L917.5 327.756L907.694 317.555Z" stroke="#E1E1E1"/>
<path d="M1013.69 624.445L1023.5 614.244L1033.31 624.445L1023.5 634.647L1013.69 624.445Z" stroke="#E1E1E1"/>
<path d="M1453.69 681.923L1463.5 671.721L1473.31 681.923L1463.5 692.125L1453.69 681.923Z" stroke="#E1E1E1"/>
<path d="M1609.69 467.923L1619.5 457.721L1629.31 467.923L1619.5 478.125L1609.69 467.923Z" stroke="#E1E1E1"/>
<path d="M1720.69 703.923L1730.5 693.721L1740.31 703.923L1730.5 714.125L1720.69 703.923Z" stroke="#E1E1E1"/>
<path d="M1779.69 498.923L1789.5 488.721L1799.31 498.923L1789.5 509.125L1779.69 498.923Z" stroke="#E1E1E1" stroke-opacity="0.2"/>
<path d="M1789.69 132.923L1799.5 122.721L1809.31 132.923L1799.5 143.125L1789.69 132.923Z" stroke="#E1E1E1" stroke-opacity="0.5"/>
<line y1="-0.5" x2="24.5309" y2="-0.5" transform="matrix(-0.693002 0.720935 -0.693002 -0.720935 787 499.088)" stroke="#C7C7C7"/>
<line y1="-0.5" x2="24.5309" y2="-0.5" transform="matrix(-0.693002 0.720935 -0.693002 -0.720935 1618 620)" stroke="#C7C7C7"/>
<line y1="-0.5" x2="24.5309" y2="-0.5" transform="matrix(-0.693002 0.720935 -0.693002 -0.720935 1842 689)" stroke="#C7C7C7"/>
<line y1="-0.5" x2="24.5309" y2="-0.5" transform="matrix(-0.693002 0.720935 -0.693002 -0.720935 1805 614)" stroke="#C7C7C7"/>
<line y1="-0.5" x2="24.5309" y2="-0.5" transform="matrix(-0.693002 0.720935 -0.693002 -0.720935 1693 326)" stroke="#C7C7C7" stroke-opacity="0.2"/>
<line y1="-0.5" x2="24.5309" y2="-0.5" transform="matrix(-0.693002 0.720935 -0.693002 -0.720935 1706 36)" stroke="#C7C7C7"/>
<line y1="-0.5" x2="24.5309" y2="-0.5" transform="matrix(-0.693002 0.720935 -0.693002 -0.720935 1193 687)" stroke="#C7C7C7"/>
<line y1="-0.5" x2="24.5309" y2="-0.5" transform="matrix(-0.693002 0.720935 -0.693002 -0.720935 1051 62.1593)" stroke="#C7C7C7"/>
</svg>
